<?xml version="1.0" encoding="utf-8"?>
<!-- Generator: Adobe Illustrator 22.1.0, SVG Export Plug-In . SVG Version: 6.00 Build 0)  -->
<svg version="1.1" id="Layer_1_1_" xmlns="http://www.w3.org/2000/svg" xmlns:xlink="http://www.w3.org/1999/xlink" x="0px" y="0px"
	 viewBox="0 0 512 512" style="enable-background:new 0 0 512 512;" xml:space="preserve">
<style type="text/css">
	.st0{fill:#9899AC;}
</style>
<g>
	<path class="st0" d="M32,496h48c8.8,0,16-7.2,16-16v-16h180.8c40.2,0,79.5-11.3,113.5-32.6c51.4-32.1,86.9-84.8,97.4-144.4
		l3.5-19.7c1.6-8.8-0.8-17.7-6.6-24.6S470.6,232,461.7,232c-4.9,0-9.5,1.2-13.7,3.3V200h8c3.2,0,6.2-2,7.4-4.9
		c1.2-3,0.6-6.4-1.7-8.7l-64-64c-3.1-3.1-8.2-3.1-11.3,0L368,140.7V32c0-4.4-3.6-8-8-8h-80c-4.4,0-8,3.6-8,8v88h-32.4
		c-6.1-13.4-10.6-21.2-14.2-25.8l20.2-49.4c2.2-5.4,0.9-11.5-3.3-15.5c-4.3-4-10.4-4.9-15.7-2.3l-15.1,7.6L201.9,22
		c-2.4-3.2-6.1-5.2-10.1-5.5c-4-0.3-7.9,1.2-10.8,4l-12.2,12.2l-8-10.7c-2.4-3.2-6.1-5.2-10.1-5.5c-4-0.3-8,1.2-10.8,4l-15.4,15.4
		l-23.1-6.6c-5.4-1.6-11.1,0.3-14.6,4.7c-3.5,4.4-4,10.4-1.4,15.3l24.2,44.7c-17,15.3-37.7,58.5-37.7,97.6V216c0,26.5,21.5,48,48,48
		h88h72h64h83.1l-16.9,33.8l-44,18.9c-4.9-16.5-20.1-28.7-38.2-28.7H212.8c-41.6,0-81.7,11.5-116.8,33.2V304c0-8.8-7.2-16-16-16H32
		c-8.8,0-16,7.2-16,16v176C16,488.8,23.2,496,32,496L32,496z M121.4,51.5c4.8,1.4,10.1,0,13.6-3.5l14.5-14.5l8,10.7
		c2.4,3.2,6.1,5.2,10.1,5.5c4.1,0.3,7.9-1.2,10.8-4l12.2-12.2l9.1,12.2c4,5.4,11.3,7.1,17.3,4.1l11.6-5.8l-18,44.1h-21.7l10.2-20.4
		l-14.3-7.2L171.1,88h-14l-11.2-23.2l-14.4,6.9l7.8,16.3h-14.5L102,46L121.4,51.5z M200,128v120h-80c-17.6,0-32-14.4-32-32v-24.5
		c0-42.8,26.5-82.8,34.1-87.5h90.6c1.3,1.6,4.2,5.8,9.2,16H208C203.6,120,200,123.6,200,128L200,128z M216,136h56v112h-56V136z
		 M392,139.3l44.7,44.7h-89.4L392,139.3z M288,40h64v116.7l-29.7,29.7c-2.3,2.3-3,5.7-1.7,8.7c1.2,3,4.2,4.9,7.4,4.9h8v48h-48V40z
		 M352,200h80v48h-16v-32c0-4.4-3.6-8-8-8h-32c-4.4,0-8,3.6-8,8v32h-16V200z M400,248h-16v-24h16V248z M212.8,304H328
		c13.2,0,24,10.8,24,24s-10.8,24-24,24H200v16h128c20.2,0,36.7-15.1,39.4-34.5l51.7-22.2c1.7-0.7,3.2-2.1,4-3.8l25.9-51.8
		c2.4-4.8,7.2-7.8,12.6-7.8c4.2,0,8.1,1.8,10.8,5s3.8,7.4,3.1,11.5l-3.5,19.7c-9.8,55.2-42.6,103.9-90.2,133.7
		C350.4,437.6,314,448,276.8,448H96V340.3C130.6,316.6,170.8,304,212.8,304L212.8,304z M32,304h48l0,176H32L32,304z"/>
	<path class="st0" d="M48,328h16v24H48V328z"/>
	<path class="st0" d="M304,56h8v16h-8V56z"/>
	<path class="st0" d="M328,56h8v16h-8V56z"/>
	<path class="st0" d="M304,88h8v16h-8V88z"/>
	<path class="st0" d="M328,88h8v16h-8V88z"/>
	<path class="st0" d="M304,120h8v16h-8V120z"/>
	<path class="st0" d="M328,120h8v16h-8V120z"/>
	<path class="st0" d="M232,152h8v16h-8V152z"/>
	<path class="st0" d="M256,152h8v16h-8V152z"/>
	<path class="st0" d="M232,184h8v16h-8V184z"/>
	<path class="st0" d="M256,184h8v16h-8V184z"/>
	<path class="st0" d="M232,216h8v16h-8V216z"/>
	<path class="st0" d="M256,216h8v16h-8V216z"/>
	<path class="st0" d="M304,152h8v16h-8V152z"/>
	<path class="st0" d="M328,152h8v16h-8V152z"/>
	<path class="st0" d="M176,144h-8v-8h-16v8h-8c-4.4,0-8,3.6-8,8v24c0,4.4,3.6,8,8,8h24v8h-32v8c0,4.4,3.6,8,8,8h8v8h16v-8h8
		c4.4,0,8-3.6,8-8v-24c0-4.4-3.6-8-8-8h-24v-8h32v-8C184,147.6,180.4,144,176,144z"/>
	<path class="st0" d="M424,32h16v16h-16V32z"/>
	<path class="st0" d="M440,16h16v16h-16V16z"/>
	<path class="st0" d="M456,32h16v16h-16V32z"/>
	<path class="st0" d="M440,48h16v16h-16V48z"/>
	<path class="st0" d="M480,72h16v16h-16V72z"/>
	<path class="st0" d="M424,96h16v16h-16V96z"/>
	<path class="st0" d="M16,88h16v16H16V88z"/>
	<path class="st0" d="M32,72h16v16H32V72z"/>
	<path class="st0" d="M48,88h16v16H48V88z"/>
	<path class="st0" d="M32,104h16v16H32V104z"/>
	<path class="st0" d="M16,152h16v16H16V152z"/>
	<path class="st0" d="M48,16h16v16H48V16z"/>
</g>
</svg>
