<?xml version="1.0"?>
<svg xmlns="http://www.w3.org/2000/svg" xmlns:xlink="http://www.w3.org/1999/xlink" version="1.1" id="Capa_1" x="0px" y="0px" viewBox="0 0 512 512" style="enable-background:new 0 0 512 512;" xml:space="preserve" width="512px" height="512px"><g><g>
	<g>
		<path d="M440.354,78.372c-4.42-4.639-10.741-3.922-14.302-0.551c-3.559,3.373-4.612,9.648-0.217,14.311    c0.025,0.027,0.05,0.053,0.074,0.078c2.185,2.269,4.821,3.241,7.358,3.241c2.626,0,5.145-1.042,6.945-2.767    C443.753,89.292,444.775,83.012,440.354,78.372z" data-original="#000000" class="active-path" data-old_color="#000000" fill="#FFFFFF"/>
	</g>
</g><g>
	<g>
		<path d="M473.172,120.394c-2.929-4.683-9.1-6.104-13.782-3.174s-6.103,9.1-3.173,13.781C479.626,168.415,492,211.639,492,256    c0,130.131-105.869,236-236,236S20,386.131,20,256S125.869,20,256,20c46.056,0,90.676,13.267,129.035,38.366    c4.624,3.023,10.82,1.729,13.844-2.893c3.023-4.622,1.729-10.819-2.893-13.844C354.362,14.396,305.956,0,256,0    C187.62,0,123.333,26.629,74.98,74.98C26.629,123.333,0,187.62,0,256s26.629,132.667,74.98,181.02    C123.333,485.371,187.62,512,256,512s132.667-26.629,181.02-74.98C485.371,388.667,512,324.38,512,256    C512,207.883,498.573,160.991,473.172,120.394z" data-original="#000000" class="active-path" data-old_color="#000000" fill="#FFFFFF"/>
	</g>
</g><g>
	<g>
		<path d="M442.704,178.922c-0.029-0.075-0.049-0.15-0.08-0.225c-0.026-0.063-0.06-0.12-0.086-0.182    c-10.065-24.14-24.683-45.92-42.777-64.268c-0.282-0.375-0.583-0.741-0.924-1.083c-0.341-0.341-0.707-0.641-1.081-0.923    c-18.353-18.099-40.138-32.719-64.284-42.785c-0.057-0.025-0.11-0.056-0.168-0.08c-0.068-0.028-0.138-0.047-0.207-0.073    C309.327,59.451,283.29,54,256,54c-27.29,0-53.327,5.451-77.096,15.303c-0.069,0.027-0.138,0.045-0.207,0.074    c-0.058,0.024-0.111,0.055-0.168,0.08c-24.146,10.065-45.932,24.686-64.284,42.785c-0.375,0.281-0.74,0.582-1.081,0.923    c-0.342,0.342-0.642,0.707-0.924,1.083C94.142,132.6,79.521,154.385,69.457,178.53c-0.025,0.057-0.056,0.11-0.08,0.168    c-0.028,0.069-0.047,0.138-0.074,0.207C59.451,202.674,54,228.71,54,256c0,53.956,21.012,104.683,59.164,142.836    c1.953,1.952,4.512,2.929,7.071,2.929c2.559,0,5.118-0.977,7.071-2.929c3.905-3.905,3.905-10.237,0-14.143    c-14.758-14.758-26.661-31.609-35.45-49.878l15.034-6.227c5.103-2.114,7.525-7.964,5.412-13.066    c-2.114-5.103-7.962-7.521-13.066-5.412l-15.033,6.227c-5.628-16.063-8.991-32.972-9.926-50.336H123c5.522,0,10-4.478,10-10    c0-5.522-4.478-10-10-10H74.278c0.955-17.539,4.409-34.421,10.004-50.305l14.958,6.196c1.252,0.519,2.548,0.765,3.823,0.765    c3.924,0,7.647-2.325,9.242-6.176c2.114-5.103-0.309-10.952-5.411-13.065l-14.947-6.192c7.496-15.548,17.146-29.867,28.548-42.585    l13.843,13.843c1.953,1.952,4.512,2.929,7.071,2.929s5.118-0.977,7.071-2.929c3.905-3.905,3.905-10.237,0-14.143l-13.843-13.843    c12.718-11.402,27.037-21.052,42.585-28.548l6.192,14.947c1.595,3.851,5.318,6.176,9.242,6.176c1.275,0,2.571-0.246,3.823-0.765    c5.103-2.113,7.525-7.963,5.411-13.065l-6.196-14.958c15.884-5.594,32.766-9.049,50.305-10.004V117c0,5.522,4.478,10,10,10    c5.522,0,10-4.478,10-10V74.278c17.539,0.955,34.421,4.409,50.305,10.004l-6.196,14.958c-2.114,5.103,0.309,10.952,5.411,13.065    c1.252,0.519,2.548,0.765,3.823,0.765c3.924,0,7.647-2.325,9.242-6.176l6.192-14.947c15.548,7.496,29.867,17.146,42.585,28.548    l-11.407,11.407c-3.905,3.905-3.905,10.237,0,14.143c1.953,1.952,4.512,2.929,7.071,2.929s5.118-0.977,7.071-2.929l11.407-11.407    c11.402,12.718,21.052,27.037,28.548,42.584l-14.943,6.19c-5.103,2.114-7.525,7.964-5.412,13.066    c1.596,3.851,5.319,6.176,9.243,6.176c1.275,0,2.571-0.246,3.823-0.764l14.955-6.194c5.594,15.883,9.049,32.765,10.003,50.304H394    c-5.522,0-10,4.478-10,10c0,5.522,4.478,10,10,10h43.723c-0.934,17.364-4.298,34.273-9.926,50.336l-15.036-6.228    c-5.103-2.109-10.952,0.311-13.066,5.412c-2.113,5.103,0.31,10.952,5.412,13.066l15.036,6.228    c-8.788,18.267-20.689,35.117-35.446,49.875c-3.906,3.907-3.906,10.239-0.001,14.144c3.906,3.904,10.238,3.904,14.143,0    C436.989,360.68,458,309.954,458,256C458,228.717,452.551,202.687,442.704,178.922z" data-original="#000000" class="active-path" data-old_color="#000000" fill="#FFFFFF"/>
	</g>
</g><g>
	<g>
		<path d="M345.084,166.916c-3.906-3.904-10.236-3.904-14.143,0l-60.571,60.571c-4.356-2.224-9.281-3.487-14.498-3.487    c-17.645,0-32,14.355-32,32c0,5.217,1.263,10.142,3.487,14.498l-3.794,3.794c-3.905,3.905-3.905,10.237,0,14.143    c1.953,1.952,4.512,2.929,7.071,2.929s5.118-0.977,7.071-2.929l3.835-3.835c4.314,2.171,9.18,3.401,14.33,3.401    c17.645,0,32-14.355,32-32c0-5.15-1.23-10.015-3.401-14.33l60.612-60.612C348.989,177.153,348.989,170.821,345.084,166.916z     M255.873,268c-3.241,0-6.182-1.297-8.343-3.393c-0.023-0.023-0.042-0.049-0.065-0.072c-0.044-0.044-0.092-0.081-0.137-0.124    c-2.134-2.167-3.455-5.137-3.455-8.412c0-6.617,5.383-12,12-12s12,5.383,12,12S262.49,268,255.873,268z" data-original="#000000" class="active-path" data-old_color="#000000" fill="#FFFFFF"/>
	</g>
</g><g>
	<g>
		<path d="M220.069,396.83c-1.859-1.86-4.439-2.931-7.069-2.931s-5.21,1.07-7.07,2.931c-1.86,1.859-2.93,4.43-2.93,7.069    c0,2.631,1.069,5.21,2.93,7.07c1.861,1.86,4.44,2.93,7.07,2.93s5.21-1.069,7.069-2.93c1.86-1.86,2.931-4.439,2.931-7.07    C223,401.259,221.93,398.689,220.069,396.83z" data-original="#000000" class="active-path" data-old_color="#000000" fill="#FFFFFF"/>
	</g>
</g><g>
	<g>
		<path d="M299,393.897h-47c-5.522,0-10,4.478-10,10c0,5.522,4.478,10,10,10h47c5.522,0,10-4.478,10-10    C309,398.375,304.522,393.897,299,393.897z" data-original="#000000" class="active-path" data-old_color="#000000" fill="#FFFFFF"/>
	</g>
</g></g> </svg>
