<?xml version="1.0" encoding="utf-8"?>
<!-- Generator: Adobe Illustrator 22.1.0, SVG Export Plug-In . SVG Version: 6.00 Build 0)  -->
<svg version="1.1" id="Capa_1" xmlns="http://www.w3.org/2000/svg" xmlns:xlink="http://www.w3.org/1999/xlink" x="0px" y="0px"
	 viewBox="0 0 512 512" style="enable-background:new 0 0 512 512;" xml:space="preserve">
<g>
	<g>
		<g>
			<path d="M440.4,78.4c-4.4-4.6-10.7-3.9-14.3-0.6c-3.6,3.4-4.6,9.6-0.2,14.3c0,0,0,0.1,0.1,0.1c2.2,2.3,4.8,3.2,7.4,3.2
				c2.6,0,5.1-1,6.9-2.8C443.8,89.3,444.8,83,440.4,78.4z"/>
		</g>
	</g>
	<g>
		<g>
			<path d="M473.2,120.4c-2.9-4.7-9.1-6.1-13.8-3.2s-6.1,9.1-3.2,13.8c23.4,37.4,35.8,80.6,35.8,125c0,130.1-105.9,236-236,236
				S20,386.1,20,256S125.9,20,256,20c46.1,0,90.7,13.3,129,38.4c4.6,3,10.8,1.7,13.8-2.9c3-4.6,1.7-10.8-2.9-13.8
				C354.4,14.4,306,0,256,0C187.6,0,123.3,26.6,75,75C26.6,123.3,0,187.6,0,256s26.6,132.7,75,181c48.4,48.4,112.6,75,181,75
				s132.7-26.6,181-75c48.4-48.4,75-112.6,75-181C512,207.9,498.6,161,473.2,120.4z"/>
		</g>
	</g>
	<g>
		<g>
			<path d="M442.7,178.9c0-0.1,0-0.1-0.1-0.2c0-0.1-0.1-0.1-0.1-0.2c-10.1-24.1-24.7-45.9-42.8-64.3c-0.3-0.4-0.6-0.7-0.9-1.1
				c-0.3-0.3-0.7-0.6-1.1-0.9c-18.4-18.1-40.1-32.7-64.3-42.8c-0.1,0-0.1-0.1-0.2-0.1c-0.1,0-0.1,0-0.2-0.1
				C309.3,59.5,283.3,54,256,54s-53.3,5.5-77.1,15.3c-0.1,0-0.1,0-0.2,0.1c-0.1,0-0.1,0.1-0.2,0.1c-24.1,10.1-45.9,24.7-64.3,42.8
				c-0.4,0.3-0.7,0.6-1.1,0.9c-0.3,0.3-0.6,0.7-0.9,1.1c-18.1,18.4-32.7,40.1-42.8,64.3c0,0.1-0.1,0.1-0.1,0.2c0,0.1,0,0.1-0.1,0.2
				C59.5,202.7,54,228.7,54,256c0,54,21,104.7,59.2,142.8c2,2,4.5,2.9,7.1,2.9s5.1-1,7.1-2.9c3.9-3.9,3.9-10.2,0-14.1
				c-14.8-14.8-26.7-31.6-35.4-49.9l15-6.2c5.1-2.1,7.5-8,5.4-13.1c-2.1-5.1-8-7.5-13.1-5.4l-15,6.2c-5.6-16.1-9-33-9.9-50.3H123
				c5.5,0,10-4.5,10-10s-4.5-10-10-10H74.3c1-17.5,4.4-34.4,10-50.3l15,6.2c1.3,0.5,2.5,0.8,3.8,0.8c3.9,0,7.6-2.3,9.2-6.2
				c2.1-5.1-0.3-11-5.4-13.1l-14.9-6.2c7.5-15.5,17.1-29.9,28.5-42.6l13.8,13.8c2,2,4.5,2.9,7.1,2.9s5.1-1,7.1-2.9
				c3.9-3.9,3.9-10.2,0-14.1l-13.8-13.8c12.7-11.4,27-21.1,42.6-28.5l6.2,14.9c1.6,3.9,5.3,6.2,9.2,6.2c1.3,0,2.6-0.2,3.8-0.8
				c5.1-2.1,7.5-8,5.4-13.1l-6.2-15c15.9-5.6,32.8-9,50.3-10V117c0,5.5,4.5,10,10,10s10-4.5,10-10V74.3c17.5,1,34.4,4.4,50.3,10
				l-6.2,15c-2.1,5.1,0.3,11,5.4,13.1c1.3,0.5,2.5,0.8,3.8,0.8c3.9,0,7.6-2.3,9.2-6.2l6.2-14.9c15.5,7.5,29.9,17.1,42.6,28.5
				L366,131.9c-3.9,3.9-3.9,10.2,0,14.1c2,2,4.5,2.9,7.1,2.9s5.1-1,7.1-2.9l11.4-11.4c11.4,12.7,21.1,27,28.5,42.6l-14.9,6.2
				c-5.1,2.1-7.5,8-5.4,13.1c1.6,3.9,5.3,6.2,9.2,6.2c1.3,0,2.6-0.2,3.8-0.8l15-6.2c5.6,15.9,9,32.8,10,50.3H394
				c-5.5,0-10,4.5-10,10c0,5.5,4.5,10,10,10h43.7c-0.9,17.4-4.3,34.3-9.9,50.3l-15-6.2c-5.1-2.1-11,0.3-13.1,5.4
				c-2.1,5.1,0.3,11,5.4,13.1l15,6.2c-8.8,18.3-20.7,35.1-35.4,49.9c-3.9,3.9-3.9,10.2,0,14.1c3.9,3.9,10.2,3.9,14.1,0
				C437,360.7,458,310,458,256C458,228.7,452.6,202.7,442.7,178.9z"/>
		</g>
	</g>
	<g>
		<g>
			<path d="M345.1,166.9c-3.9-3.9-10.2-3.9-14.1,0l-60.6,60.6c-4.4-2.2-9.3-3.5-14.5-3.5c-17.6,0-32,14.4-32,32
				c0,5.2,1.3,10.1,3.5,14.5l-3.8,3.8c-3.9,3.9-3.9,10.2,0,14.1c2,2,4.5,2.9,7.1,2.9s5.1-1,7.1-2.9l3.8-3.8
				c4.3,2.2,9.2,3.4,14.3,3.4c17.6,0,32-14.4,32-32c0-5.1-1.2-10-3.4-14.3l60.6-60.6C349,177.2,349,170.8,345.1,166.9z M255.9,268
				c-3.2,0-6.2-1.3-8.3-3.4c0,0,0,0-0.1-0.1c0,0-0.1-0.1-0.1-0.1c-2.1-2.2-3.5-5.1-3.5-8.4c0-6.6,5.4-12,12-12c6.6,0,12,5.4,12,12
				C267.9,262.6,262.5,268,255.9,268z"/>
		</g>
	</g>
	<g>
		<g>
			<path d="M220.1,396.8c-1.9-1.9-4.4-2.9-7.1-2.9s-5.2,1.1-7.1,2.9c-1.9,1.9-2.9,4.4-2.9,7.1c0,2.6,1.1,5.2,2.9,7.1
				c1.9,1.9,4.4,2.9,7.1,2.9s5.2-1.1,7.1-2.9c1.9-1.9,2.9-4.4,2.9-7.1C223,401.3,221.9,398.7,220.1,396.8z"/>
		</g>
	</g>
	<g>
		<g>
			<path d="M299,393.9h-47c-5.5,0-10,4.5-10,10s4.5,10,10,10h47c5.5,0,10-4.5,10-10S304.5,393.9,299,393.9z"/>
		</g>
	</g>
</g>
</svg>
