<svg xmlns="http://www.w3.org/2000/svg" viewBox="0 0 440.48 301.9"><defs><style>.cls-1{fill:#132333;}.cls-2{fill:#fda109;}.cls-3{fill:#f10216;}.cls-4{fill:#fdfdfd;}</style></defs><title>logo_sulsel</title><g id="Layer_2" data-name="Layer 2"><g id="Layer_1-2" data-name="Layer 1"><path class="cls-1" d="M269.59,67.18a25,25,0,0,1-17.3-6.91c-11.59-10.53-22.93-21.34-34.44-31.95-9.28-8.58-9.37-8.57-18.53.42C194,34,188.71,39.33,183.58,44.8s-5.36,7.59-1.26,13.94c5.43,8.4,10.87,16.78,18.55,23.42,2.79,2.42,5.26,3.38,8.06.12,2.49-2.91,6.6-5.07,2.57-9.89C207,67,203.09,61.21,198.72,55.75c-1.71-2.13-2.08-4-.69-6.34.68-1.14,1.26-2.35,2-3.48,6.89-11.13,12.62-11.67,20.93-1.56,5.39,6.55,10.43,13.41,15.31,20.36,5.08,7.24,4.23,13.77-2.39,19.51A250.81,250.81,0,0,1,203.49,107c-6.45,4.08-8.31,3.86-13.52-1.33-11.32-11.25-19.82-24.61-27.85-38.27-2.19-3.73-2-7.69.09-11.48a36.37,36.37,0,0,1,3.62-6A319.2,319.2,0,0,1,207.26,8.13C215,1.65,219.47,2.05,228,7.62c14.47,9.43,25.56,22.27,36.06,35.7,1,1.31,2,2.65,3.06,4C273,54.56,277.27,55.1,285,49.58c2.45-1.74,4.85-3.53,7.37-5.15,1.13-.72,2.6-2.24,3.74-.09.89,1.67,2.65,3.66.64,5.41-6.86,6-13,13-21.9,16.29A31.81,31.81,0,0,1,269.59,67.18Z"/><path class="cls-1" d="M49.49,295.7c-5.05.23-7.66-1.17-9.26-4.36-2.31-4.61-4.78-9.15-6.38-14.09-1.71-5.25-1-6.49,4.37-7.45,11.64-2.08,23.34-3.87,34.56-7.79C84.43,258,84.65,257.28,78,247.24c-3.86-5.83-7.75-11.64-11.61-17.48a62.65,62.65,0,0,1-5.77-11c-4.69-11.57-2.65-21.83,5.87-30.88a79.14,79.14,0,0,1,12.61-10.57c13.48-9.38,28.27-16.24,43.28-22.7,2.46-1,4.08-.56,5.63,1.4a36.54,36.54,0,0,1,7,13.69c1.38,5.47-.53,9.08-6.66,12.47-9.76,5.4-19.68,10.51-29.4,16a191.39,191.39,0,0,0-16.48,10.36c-7.89,5.58-8.81,10.89-3.56,19.12,3.13,4.91,6.54,9.64,9.91,14.39,5,7.06,10.3,13.93,15.08,21.14s3.2,13.19-4,17.92c-4.34,2.87-9.21,4.64-14.06,6.4A163.56,163.56,0,0,1,49.49,295.7Z"/><path class="cls-1" d="M311.22,226c.24-18.69,3.32-35.26,9.78-51.22,1.59-3.95,3.37-4.46,7.05-2.63,9.85,4.89,13.63,12.37,11.49,23.91-1.58,8.51-3.35,17-4.92,25.49a48.22,48.22,0,0,0-.3,14.44c2.5,21.27,13.55,32.21,34.88,34.27,22.45,2.16,41.92-5.35,59.41-18.9,1.85-1.42,3.59-3,5.42-4.42,1.37-1.09,2.71-2.95,4.66-1,1.65,1.63,2.41,3.67,1.19,5.89a14,14,0,0,1-2.4,3.17c-23.85,23.48-52.1,34.74-85.72,30-18.65-2.62-30.57-13.68-36.36-31.48A83.27,83.27,0,0,1,311.22,226Z"/><path class="cls-1" d="M104.22,229.18a98.65,98.65,0,0,1,2-17.1c.67-3.8,3-5.33,6.55-5.53,10.3-.58,17.83,7,17,17.19-.26,3.48-.43,7-.36,10.47,0,1.73-.45,4.38,1.48,4.88,2.22.58,3.09-2.09,4.12-3.66a28.7,28.7,0,0,0,4.07-12.23c.86-6.44,1.61-12.9,2.49-19.33.67-4.91,2.61-6.27,7.44-5.47a18.09,18.09,0,0,1,15.21,17.28c.23,13.16.68,26.3,1.85,39.42.61,6.87-2.17,9-9,7.36C151,261,145.91,258,143.35,252c-1.33-3.16-2.67-3.21-5.54-1.44-12.15,7.54-18.5,7.41-26.47-.35C105.09,244.07,104.62,236,104.22,229.18Z"/><path class="cls-1" d="M213.23,284.41c-3.48-.22-7-.28-10.29-1.66-1.57-.66-3.12-1.52-3.36-3.38s1.3-2.95,2.76-3.78a105.39,105.39,0,0,0,14.12-9.37,40.26,40.26,0,0,0,10.4-12c3.28-5.91,2.57-8.94-3.14-12.42a37.34,37.34,0,0,1-7.29-5.2,22.62,22.62,0,0,1-3-28A34.76,34.76,0,0,1,228,196c4-1.83,8.1-3.41,11.57,1.34,4.3,5.87,4.94,12.31,1,16.43-3,3.14-5.85,6.38-7.39,10.52-2.12,5.68-.21,9.73,5.5,11.8,2,.73,4.15,1.27,6.1,2.18a12.78,12.78,0,0,1,7.41,14.8C249.35,267,227.27,284.76,213.23,284.41Z"/><path class="cls-1" d="M173.91,205.93c.08-12.87.06-22.38,2.18-31.71,1.61-7.12,6.2-9.48,13-6.78,9.16,3.63,12.4,9.14,11.26,18.92-1.25,10.75-2.52,21.5-2.33,32.36.19,11.39,2.51,22.11,9.21,31.62,1.84,2.62,3.69,5.71.84,8.59s-5.93,1-8.74-.47c-14.36-7.29-22.27-19.2-24.27-35C174.18,216.57,174.13,209.54,173.91,205.93Z"/><path class="cls-1" d="M255.57,233.87a32.84,32.84,0,0,1,29.09-33.23A19.84,19.84,0,0,1,306.56,219c.21,3.3-1.6,5.3-3.74,7.2A150.43,150.43,0,0,1,279.24,243c-4.63,2.74-4.82,3.7-1.61,8.05A21.21,21.21,0,0,0,288,258.56c2.42.84,4.35,1.75,3.53,4.88s-3.1,3.08-5.53,3C269.85,265.91,255.68,250.73,255.57,233.87Zm23-6.93a31.31,31.31,0,0,0,9.46-5.78c1.1-1,2.49-2.06,1.14-3.74s-3.21-1.66-4.84-.35C281.46,219.43,280,222.68,278.61,226.94Z"/><path class="cls-2" d="M260.06,100.64c-.65,3.78-1.82,6.46-4.18,8.55-10.85,9.6-21.73,19.16-32.5,28.84-3.07,2.76-5.49,2.52-7.9-.72-2.29-3.06-4.8-6-7-9.07-3.28-4.52-3.31-7.78.78-11.43,11.93-10.65,24.64-20.36,37.37-30,1.45-1.11,3.25-1.62,4.59-.29C255.34,90.68,257.68,96,260.06,100.64Z"/><path class="cls-3" d="M16.32,301.9c-1.94-.19-3.26-.29-4.58-.44C-.15,300.1-1,299,.6,287.29c1.23-9.19,4.79-13,13.31-14.42,4.48-.75,7.78.52,9.74,4.88a72.19,72.19,0,0,1,4.86,14.63c1.15,5.39-.1,7.4-5.39,8.55C20.7,301.46,18.2,301.64,16.32,301.9Z"/><path class="cls-3" d="M280.58,31a6.6,6.6,0,0,1-4.91-1.4c-2.34-1.85-4.89-3.56-6.82-5.78-8.47-9.77-9.23-11.78,1.75-20.61,5.6-4.51,7.61-4.28,12.81.76,2.62,2.53,4.79,5.55,7.51,8,3.89,3.45,3.17,6.75.43,10.36C288.32,26.31,285.24,30.21,280.58,31Z"/><path class="cls-4" d="M278.61,226.94c1.41-4.26,2.85-7.51,5.76-9.87,1.63-1.31,3.43-1.4,4.84.35s0,2.78-1.14,3.74A31.31,31.31,0,0,1,278.61,226.94Z"/></g></g></svg>